# xmcd
#
# Track frame offsets:
#	150
#	12846
#	27265
#	41609
#	54580
#	67619
#	76404
#	84625
#	96777
#	105034
#	113125
#	122353
#	139269
#	150433
#	172818
#	183852
#	190659
#	203358
# Disc length: 2869 seconds
# Revision: 1
# Processed by: cddbd v1.5.1PL0 Copyright (c) Steve Scherf et al.
#
# Submitted via: libkcddb 0.20
#
DISCID=c70b3312
DTITLE=Gerhard Schöne - Menschenskind
DYEAR=1985
DGENRE=Liedermacher
TTITLE0=Sei willkommen
TTITLE1=Ein Junge weint nicht
TTITLE2=Die Alte auf der Schaukel
TTITLE3=Erinnerung
TTITLE4=Ich bin im Fernsehn aufgetreten
TTITLE5=Prinzessin
TTITLE6=Fern und nah
TTITLE7=Gesprengter Bunker
TTITLE8=Woher die Kinder kommen
TTITLE9=Manchmal sagt der Opa Sachen
TTITLE10=Erwachsen
TTITLE11=Wellensittich und Spatzen
TTITLE12=Ganz einfach
TTITLE13=Phantasia
TTITLE14=Ich kann es nicht vergessen
TTITLE15=Frühlingslied
TTITLE16=Versteckspiel
TTITLE17=Ade, mein lieb (Die Taube)
EXTD=digital remastered from an Amiga Record by Buschfunk
EXTT0=
EXTT1=
EXTT2=
EXTT3=
EXTT4=
EXTT5=
EXTT6=
EXTT7=
EXTT8=
EXTT9=
EXTT10=
EXTT11=
EXTT12=
EXTT13=
EXTT14=
EXTT15=
EXTT16=Bonustrack 1
EXTT17=Bonustrack 2
PLAYORDER=
